<?xml version="1.0" encoding="UTF-8"?>
<!DOCTYPE svg PUBLIC "-//W3C//DTD SVG 1.1//EN" "http://www.w3.org/Graphics/SVG/1.1/DTD/svg11.dtd">
<!-- Creator: CorelDRAW -->
<svg xmlns="http://www.w3.org/2000/svg" xml:space="preserve" width="1154px" height="374px" version="1.1" style="shape-rendering:geometricPrecision; text-rendering:geometricPrecision; image-rendering:optimizeQuality; fill-rule:evenodd; clip-rule:evenodd"
viewBox="0 0 1152.32 373.14"
 xmlns:xlink="http://www.w3.org/1999/xlink"
 xmlns:xodm="http://www.corel.com/coreldraw/odm/2003">
 <defs>
  <style type="text/css">
   <![CDATA[
    .fil0 {fill:#6158CA}
   ]]>
  </style>
 </defs>
 <g id="Camada_x0020_1">
  <metadata id="CorelCorpID_0Corel-Layer"/>
  <g>
   <path class="fil0" d="M212.04 332.22l0 0zm547.23 -86.67c-37.23,-28.15 -50.38,-81.35 -19.1,-126.19 23.33,-33.43 66.79,-45.34 102.65,-40.8 15.11,1.92 28.45,6.24 39.65,12.12l0.09 -12.69c0.12,-17.45 -0.54,-35.61 -8.09,-50.39 -11.82,-23.11 45.65,-61.2 46.53,32.37 0.12,51.9 0.2,28.93 0.26,79.65 0.11,1.17 0.18,2.34 0.19,3.51l0.41 46.18c0.15,17.43 1.26,28.11 10.7,48.48 10.11,21.82 -29.04,42.74 -43.32,5.89 -36.89,26.93 -92.53,30.19 -129.97,1.87zm122.91 -50.48l0.1 -37.15c-0.59,-9.9 -3.39,-19.05 -15.97,-28.17 -32.17,-23.32 -90.45,-8.37 -100.55,30.91 -11.09,43.08 32.62,81.44 84.56,61.7 11.33,-4.31 22.23,-11.25 29.68,-20.92 1.46,-1.91 2.17,-3.97 2.18,-6.37zm135.61 -75.29c-47.26,18.92 -47.08,85.31 1.46,103.44 37.95,14.17 91.55,-2.27 92.43,-50.75 0.93,-51.62 -55.22,-68.16 -93.89,-52.69zm-75.64 54.63c-4.1,-127.8 212.53,-128.99 210.15,-1.36 -2.26,121.05 -206.27,122.22 -210.15,1.36zm-452 -54.8l13.61 -0.11c3.66,-0.04 6.95,-0.37 9.88,-0.62 11.4,-0.95 19.64,-12.19 19.95,-23.24 0.53,-18.52 -10.09,-18.75 -21.17,-17.83 -7.56,0.62 -14.84,0.88 -22.4,0.95 -0.02,-7 -0.04,-7.36 -0.07,-18.22 -0.88,-93.58 -58.35,-55.49 -46.53,-32.38 7.56,14.78 8.16,32.94 8.09,50.39l-0.5 115.57c-0.13,27.12 5.03,68.06 23.37,89.97 15.41,18.41 45.48,-1.3 34.67,-19.25 -16.76,-27.84 -18.79,-43.97 -18.81,-74.41 -0.02,-32.13 -0.05,-57.89 -0.09,-70.82zm-129.86 101.72c2.01,-0.78 3.77,-1.57 5.5,-1.87 17.9,-3.19 34.38,35.03 -6.57,43.5 -35.06,7.26 -67.26,0.33 -89.99,-16.89 -37.22,-28.22 -50.38,-81.52 -19.09,-126.46 23.32,-33.5 66.78,-45.44 102.64,-40.88 48.26,6.13 78.39,36.76 78.63,64.7l0.41 46.27c0.16,17.48 1.27,28.18 10.7,48.59 12.91,27.91 -48.83,48.97 -49.53,-25.06l-0.61 -41.5c-0.19,-15.96 1.72,-28.98 -16.11,-43.15 -32.45,-25.8 -90.6,-9.64 -100.55,31.64 -10.66,44.21 32.62,81.32 84.57,61.11zm315.25 -20.44c-23.91,36.3 -80.52,37.3 -101.43,1.67 -0.07,-0.13 -0.08,-0.26 -0.05,-0.39 0.04,-0.14 0.13,-0.25 0.26,-0.31 33.82,-17.23 67.81,-18.97 101.63,-29.87 17.19,-5.83 40.25,-9.28 29.09,-42.65 -14.09,-42.09 -60.7,-58.65 -106.66,-48.57 -39.07,8.56 -68.66,41.21 -70.27,83.29 -0.21,5.45 -0.06,9.74 0.79,15.49 0,0 0,0.01 0,0.01l0.11 0.97c0.03,0.21 -0.08,0.41 -0.27,0.5 -46.38,22.83 -18.22,65.95 1.15,45.84 2.97,-3.08 5.53,-5.51 8.87,-8.4 0.12,-0.11 0.27,-0.15 0.43,-0.11 0.16,0.03 0.28,0.13 0.35,0.28 25.17,53.62 107.34,60.61 153.16,20.21 2.95,-2.61 5.4,-5.08 7.21,-7.6 21.9,-27.47 -9.7,-52.64 -24.37,-30.36zm-110.19 -32.94c30.19,-15.22 57.94,-18.77 90.71,-28.13 22.3,-6.37 -10.69,-36.16 -49.58,-24.63 -23.14,6.86 -42.16,24.55 -41.86,52.32 0,0.18 0.09,0.33 0.24,0.42 0.15,0.09 0.33,0.1 0.49,0.02zm-541.18 100.72l38.05 -25.82 -38.05 25.82zm45.92 -187.33c-13.82,1.82 -28.42,6.93 -41.19,15.32 -5.3,3.47 -5.18,2.26 -4.2,-1.86 1.54,-6.45 10.59,-22.24 19.97,-34.44 5.95,-7.73 13.27,-15.05 16.43,-15.13 1.29,-0.03 4.87,2.75 8.32,5.9 5.8,5.29 13.96,14.18 21.24,26.77 27.95,-4.13 57.52,0.35 80.97,13.87 1.25,0.72 1.68,0.37 0.34,-0.69 -14.99,-11.93 -23.92,-12.91 -24.66,-14.32 -1.58,-3.04 18.93,-10.74 25.31,-12.14 0.73,-0.16 1.27,-0.24 1.58,-0.22 5.63,0.35 11.92,25.85 10.62,36.5 28.2,23.32 38.26,63.14 27.91,97.59 -14.23,47.34 -58.15,66.72 -103.42,68.34 -5.23,0.18 -10.38,0.12 -15.44,-0.22 -19.47,11.93 -9.76,35.26 16.6,27.95 22.93,-6.38 52.65,-23.54 79.42,-30.58 31.24,-8.22 60.82,-0.35 77,19.09 11.86,14.26 17.22,35.55 7.22,57.22 -10.72,23.24 -37.24,39.65 -65.8,30.06 -20.97,-7.04 -24.92,-25.48 -20.3,-37.48 2.34,-6.1 7.16,-10.01 12.67,-10.22 10.37,-0.39 12.5,11.17 24.45,10.35 13.37,-0.92 18.6,-18.64 6.25,-27.86 -11.54,-8.63 -31.99,-4.53 -49,1.39 -33.84,11.79 -58.81,32.95 -94.16,29 -45.17,-5.05 -60.03,-50.69 -39,-81.16 -3.69,-1.96 -7.3,-4.18 -10.85,-6.66 -32.04,-22.48 -46.14,-65.71 -34.11,-103.9 9.32,-29.57 33.5,-51.16 66.12,-61.3 1.61,-0.5 1.09,-1.35 -0.29,-1.17zm-27.54 90.3c-1.4,79.51 134.46,77.08 131.66,-1.71 -2.75,-77.61 -130.36,-72.33 -131.66,1.71z"/>
  </g>
 </g>
</svg>
