<?xml version="1.0" encoding="UTF-8"?>
<!DOCTYPE svg PUBLIC "-//W3C//DTD SVG 1.1//EN" "http://www.w3.org/Graphics/SVG/1.1/DTD/svg11.dtd">
<!-- Creator: CorelDRAW -->
<svg xmlns="http://www.w3.org/2000/svg" xml:space="preserve" width="1170px" height="390px" version="1.1" style="shape-rendering:geometricPrecision; text-rendering:geometricPrecision; image-rendering:optimizeQuality; fill-rule:evenodd; clip-rule:evenodd"
viewBox="0 0 1168.31 389.08"
 xmlns:xlink="http://www.w3.org/1999/xlink"
 xmlns:xodm="http://www.corel.com/coreldraw/odm/2003">
 <defs>
  <style type="text/css">
   <![CDATA[
    .str0 {stroke:#6158CA;stroke-width:15.97;stroke-miterlimit:22.9256}
    .fil0 {fill:none}
    .fil1 {fill:#EBFC66}
   ]]>
  </style>
 </defs>
 <g id="Camada_x0020_1">
  <metadata id="CorelCorpID_0Corel-Layer"/>
  <g>
   <path class="fil0 str0" d="M220.02 340.18l0 0zm547.26 -86.67c-37.23,-28.16 -50.39,-81.35 -19.1,-126.2 23.32,-33.43 66.79,-45.34 102.65,-40.8 15.11,1.92 28.45,6.24 39.65,12.12l0.09 -12.69c0.13,-17.45 -0.53,-35.62 -8.09,-50.39 -11.82,-23.12 45.65,-61.21 46.54,32.37 0.11,51.9 0.19,28.93 0.25,79.66 0.12,1.17 0.18,2.34 0.19,3.5l0.41 46.18c0.16,17.44 1.27,28.12 10.7,48.49 10.12,21.82 -29.04,42.74 -43.32,5.89 -36.89,26.93 -92.53,30.19 -129.97,1.87zm122.91 -50.48l0.1 -37.15c-0.58,-9.9 -3.38,-19.05 -15.97,-28.18 -32.17,-23.32 -90.45,-8.37 -100.56,30.92 -11.08,43.08 32.63,81.44 84.57,61.69 11.33,-4.3 22.23,-11.25 29.68,-20.92 1.46,-1.9 2.17,-3.96 2.18,-6.36zm135.61 -75.3c-47.25,18.92 -47.08,85.32 1.47,103.45 37.95,14.17 91.56,-2.27 92.43,-50.75 0.94,-51.63 -55.22,-68.17 -93.9,-52.7zm-75.63 54.64c-4.11,-127.82 212.54,-129 210.15,-1.37 -2.26,121.06 -206.28,122.23 -210.15,1.37zm-452.02 -54.81l13.6 -0.1c3.67,-0.05 6.95,-0.38 9.89,-0.62 11.4,-0.96 19.64,-12.2 19.95,-23.25 0.53,-18.51 -10.09,-18.75 -21.18,-17.83 -7.55,0.62 -14.84,0.88 -22.39,0.95 -0.02,-7 -0.05,-7.36 -0.07,-18.22 -0.89,-93.58 -58.36,-55.49 -46.54,-32.38 7.56,14.78 8.17,32.94 8.09,50.39l-0.49 115.57c-0.14,27.12 5.02,68.07 23.36,89.98 15.41,18.41 45.48,-1.3 34.68,-19.25 -16.76,-27.84 -18.79,-43.97 -18.81,-74.41 -0.03,-32.14 -0.06,-57.9 -0.09,-70.83zm-129.87 101.73c2.01,-0.79 3.78,-1.57 5.5,-1.87 17.9,-3.19 34.39,35.03 -6.57,43.5 -35.06,7.26 -67.26,0.33 -89.99,-16.89 -37.23,-28.22 -50.38,-81.53 -19.1,-126.47 23.33,-33.5 66.79,-45.44 102.65,-40.88 48.26,6.13 78.39,36.76 78.64,64.7l0.41 46.28c0.15,17.48 1.26,28.18 10.7,48.59 12.9,27.91 -48.84,48.97 -49.54,-25.07l-0.61 -41.5c-0.19,-15.96 1.72,-28.98 -16.11,-43.15 -32.45,-25.8 -90.6,-9.64 -100.55,31.64 -10.66,44.21 32.62,81.33 84.57,61.12zm315.26 -20.45c-23.91,36.3 -80.52,37.31 -101.43,1.67 -0.07,-0.12 -0.08,-0.25 -0.05,-0.39 0.04,-0.14 0.13,-0.24 0.26,-0.31 33.82,-17.22 67.81,-18.97 101.63,-29.86 17.2,-5.83 40.26,-9.28 29.09,-42.65 -14.08,-42.09 -60.7,-58.66 -106.66,-48.58 -39.07,8.56 -68.66,41.21 -70.28,83.29 -0.2,5.45 -0.05,9.75 0.8,15.49 0,0.01 0,0.01 0,0.02l0.11 0.97c0.03,0.21 -0.08,0.4 -0.27,0.5 -46.38,22.82 -18.23,65.94 1.15,45.84 2.96,-3.08 5.53,-5.51 8.87,-8.4 0.12,-0.11 0.27,-0.15 0.43,-0.12 0.16,0.04 0.28,0.14 0.35,0.28 25.17,53.63 107.35,60.62 153.16,20.22 2.96,-2.61 5.4,-5.08 7.21,-7.61 21.9,-27.46 -9.7,-52.63 -24.37,-30.36zm-110.2 -32.94c30.2,-15.22 57.95,-18.77 90.72,-28.13 22.3,-6.37 -10.69,-36.16 -49.58,-24.63 -23.14,6.86 -42.16,24.56 -41.86,52.32 0,0.18 0.09,0.33 0.24,0.42 0.15,0.1 0.33,0.1 0.48,0.02zm-541.2 100.73l38.06 -25.82m7.87 -161.52c-13.82,1.82 -28.43,6.93 -41.2,15.32 -5.29,3.47 -5.17,2.26 -4.19,-1.86 1.54,-6.45 10.58,-22.24 19.97,-34.44 5.95,-7.73 13.27,-15.05 16.43,-15.13 1.29,-0.03 4.87,2.75 8.32,5.9 5.8,5.29 13.96,14.18 21.24,26.77 27.95,-4.13 57.53,0.35 80.98,13.87 1.24,0.72 1.67,0.37 0.33,-0.69 -14.98,-11.93 -23.92,-12.91 -24.65,-14.32 -1.59,-3.04 18.92,-10.74 25.31,-12.14 0.72,-0.16 1.27,-0.24 1.57,-0.22 5.63,0.35 11.92,25.85 10.63,36.5 28.19,23.32 38.26,63.14 27.9,97.59 -14.23,47.35 -58.15,66.73 -103.42,68.34 -5.23,0.19 -10.38,0.13 -15.44,-0.21 -19.47,11.93 -9.76,35.26 16.6,27.95 22.93,-6.38 52.65,-23.55 79.42,-30.59 31.25,-8.21 60.83,-0.34 77,19.1 11.87,14.26 17.23,35.55 7.23,57.22 -10.72,23.25 -37.24,39.66 -65.8,30.07 -20.98,-7.05 -24.93,-25.48 -20.31,-37.49 2.34,-6.1 7.16,-10.01 12.68,-10.22 10.36,-0.39 12.5,11.17 24.45,10.35 13.37,-0.91 18.6,-18.64 6.25,-27.86 -11.55,-8.63 -31.99,-4.53 -49,1.39 -33.84,11.79 -58.82,32.95 -94.17,29 -45.17,-5.05 -60.03,-50.69 -39.01,-81.17 -3.68,-1.95 -7.29,-4.17 -10.84,-6.65 -32.04,-22.48 -46.15,-65.72 -34.11,-103.91 9.32,-29.56 33.49,-51.16 66.12,-61.3 1.6,-0.5 1.09,-1.35 -0.29,-1.17zm-27.54 90.31c-1.4,79.51 134.46,77.08 131.67,-1.72 -2.76,-77.6 -130.37,-72.33 -131.67,1.72z"/>
   <path id="_1" class="fil1" d="M220.02 340.18l0 0zm547.26 -86.67c-37.23,-28.16 -50.39,-81.35 -19.1,-126.2 23.32,-33.43 66.79,-45.34 102.65,-40.8 15.11,1.92 28.45,6.24 39.65,12.12l0.09 -12.69c0.13,-17.45 -0.53,-35.62 -8.09,-50.39 -11.82,-23.12 45.65,-61.21 46.54,32.37 0.11,51.9 0.19,28.93 0.25,79.66 0.12,1.17 0.18,2.34 0.19,3.5l0.41 46.18c0.16,17.44 1.27,28.12 10.7,48.49 10.12,21.82 -29.04,42.74 -43.32,5.89 -36.89,26.93 -92.53,30.19 -129.97,1.87zm122.91 -50.48l0.1 -37.15c-0.58,-9.9 -3.38,-19.05 -15.97,-28.18 -32.17,-23.32 -90.45,-8.37 -100.56,30.92 -11.08,43.08 32.63,81.44 84.57,61.69 11.33,-4.3 22.23,-11.25 29.68,-20.92 1.46,-1.9 2.17,-3.96 2.18,-6.36zm135.61 -75.3c-47.25,18.92 -47.08,85.32 1.47,103.45 37.95,14.17 91.56,-2.27 92.43,-50.75 0.94,-51.63 -55.22,-68.17 -93.9,-52.7zm-75.63 54.64c-4.11,-127.82 212.54,-129 210.15,-1.37 -2.26,121.06 -206.28,122.23 -210.15,1.37zm-452.02 -54.81l13.6 -0.1c3.67,-0.05 6.95,-0.38 9.89,-0.62 11.4,-0.96 19.64,-12.2 19.95,-23.25 0.53,-18.51 -10.09,-18.75 -21.18,-17.83 -7.55,0.62 -14.84,0.88 -22.39,0.95 -0.02,-7 -0.05,-7.36 -0.07,-18.22 -0.89,-93.58 -58.36,-55.49 -46.54,-32.38 7.56,14.78 8.17,32.94 8.09,50.39l-0.49 115.57c-0.14,27.12 5.02,68.07 23.36,89.98 15.41,18.41 45.48,-1.3 34.68,-19.25 -16.76,-27.84 -18.79,-43.97 -18.81,-74.41 -0.03,-32.14 -0.06,-57.9 -0.09,-70.83zm-129.87 101.73c2.01,-0.79 3.78,-1.57 5.5,-1.87 17.9,-3.19 34.39,35.03 -6.57,43.5 -35.06,7.26 -67.26,0.33 -89.99,-16.89 -37.23,-28.22 -50.38,-81.53 -19.1,-126.47 23.33,-33.5 66.79,-45.44 102.65,-40.88 48.26,6.13 78.39,36.76 78.64,64.7l0.41 46.28c0.15,17.48 1.26,28.18 10.7,48.59 12.9,27.91 -48.84,48.97 -49.54,-25.07l-0.61 -41.5c-0.19,-15.96 1.72,-28.98 -16.11,-43.15 -32.45,-25.8 -90.6,-9.64 -100.55,31.64 -10.66,44.21 32.62,81.33 84.57,61.12zm315.26 -20.45c-23.91,36.3 -80.52,37.31 -101.43,1.67 -0.07,-0.12 -0.08,-0.25 -0.05,-0.39 0.04,-0.14 0.13,-0.24 0.26,-0.31 33.82,-17.22 67.81,-18.97 101.63,-29.86 17.2,-5.83 40.26,-9.28 29.09,-42.65 -14.08,-42.09 -60.7,-58.66 -106.66,-48.58 -39.07,8.56 -68.66,41.21 -70.28,83.29 -0.2,5.45 -0.05,9.75 0.8,15.49 0,0.01 0,0.01 0,0.02l0.11 0.97c0.03,0.21 -0.08,0.4 -0.27,0.5 -46.38,22.82 -18.23,65.94 1.15,45.84 2.96,-3.08 5.53,-5.51 8.87,-8.4 0.12,-0.11 0.27,-0.15 0.43,-0.12 0.16,0.04 0.28,0.14 0.35,0.28 25.17,53.63 107.35,60.62 153.16,20.22 2.96,-2.61 5.4,-5.08 7.21,-7.61 21.9,-27.46 -9.7,-52.63 -24.37,-30.36zm-110.2 -32.94c30.2,-15.22 57.95,-18.77 90.72,-28.13 22.3,-6.37 -10.69,-36.16 -49.58,-24.63 -23.14,6.86 -42.16,24.56 -41.86,52.32 0,0.18 0.09,0.33 0.24,0.42 0.15,0.1 0.33,0.1 0.48,0.02zm-541.2 100.73l38.06 -25.82 -38.06 25.82zm45.93 -187.34c-13.82,1.82 -28.43,6.93 -41.2,15.32 -5.29,3.47 -5.17,2.26 -4.19,-1.86 1.54,-6.45 10.58,-22.24 19.97,-34.44 5.95,-7.73 13.27,-15.05 16.43,-15.13 1.29,-0.03 4.87,2.75 8.32,5.9 5.8,5.29 13.96,14.18 21.24,26.77 27.95,-4.13 57.53,0.35 80.98,13.87 1.24,0.72 1.67,0.37 0.33,-0.69 -14.98,-11.93 -23.92,-12.91 -24.65,-14.32 -1.59,-3.04 18.92,-10.74 25.31,-12.14 0.72,-0.16 1.27,-0.24 1.57,-0.22 5.63,0.35 11.92,25.85 10.63,36.5 28.19,23.32 38.26,63.14 27.9,97.59 -14.23,47.35 -58.15,66.73 -103.42,68.34 -5.23,0.19 -10.38,0.13 -15.44,-0.21 -19.47,11.93 -9.76,35.26 16.6,27.95 22.93,-6.38 52.65,-23.55 79.42,-30.59 31.25,-8.21 60.83,-0.34 77,19.1 11.87,14.26 17.23,35.55 7.23,57.22 -10.72,23.25 -37.24,39.66 -65.8,30.07 -20.98,-7.05 -24.93,-25.48 -20.31,-37.49 2.34,-6.1 7.16,-10.01 12.68,-10.22 10.36,-0.39 12.5,11.17 24.45,10.35 13.37,-0.91 18.6,-18.64 6.25,-27.86 -11.55,-8.63 -31.99,-4.53 -49,1.39 -33.84,11.79 -58.82,32.95 -94.17,29 -45.17,-5.05 -60.03,-50.69 -39.01,-81.17 -3.68,-1.95 -7.29,-4.17 -10.84,-6.65 -32.04,-22.48 -46.15,-65.72 -34.11,-103.91 9.32,-29.56 33.49,-51.16 66.12,-61.3 1.6,-0.5 1.09,-1.35 -0.29,-1.17zm-27.54 90.31c-1.4,79.51 134.46,77.08 131.67,-1.72 -2.76,-77.6 -130.37,-72.33 -131.67,1.72z"/>
  </g>
 </g>
</svg>
