<?xml version="1.0" encoding="UTF-8"?>
<!DOCTYPE svg PUBLIC "-//W3C//DTD SVG 1.1//EN" "http://www.w3.org/Graphics/SVG/1.1/DTD/svg11.dtd">
<!-- Creator: CorelDRAW -->
<svg xmlns="http://www.w3.org/2000/svg" xml:space="preserve" width="639px" height="209px" version="1.1" style="shape-rendering:geometricPrecision; text-rendering:geometricPrecision; image-rendering:optimizeQuality; fill-rule:evenodd; clip-rule:evenodd"
viewBox="0 0 75.43 24.67"
 xmlns:xlink="http://www.w3.org/1999/xlink"
 xmlns:xodm="http://www.corel.com/coreldraw/odm/2003">
 <defs>
  <style type="text/css">
   <![CDATA[
    .fil0 {fill:#7865DA}
   ]]>
  </style>
 </defs>
 <g id="Camada_x0020_1">
  <metadata id="CorelCorpID_0Corel-Layer"/>
  <path class="fil0" d="M49.68 16.09c-2.43,-1.85 -3.3,-5.33 -1.25,-8.27 1.53,-2.19 4.38,-2.97 6.73,-2.67 0.99,0.12 1.86,0.4 2.59,0.79l0.01 -0.83c0.01,-1.14 -0.03,-2.33 -0.53,-3.3 -0.77,-1.52 2.99,-4.01 3.05,2.12 0.01,3.4 0.01,1.89 0.02,5.22 0,0.07 0.01,0.15 0.01,0.23l0.02 3.02c0.01,1.14 0.09,1.84 0.71,3.18 0.66,1.43 -1.91,2.8 -2.84,0.38 -2.42,1.77 -6.06,1.98 -8.52,0.13zm8.06 -3.31l0 -2.44c-0.04,-0.64 -0.22,-1.24 -1.04,-1.84 -2.11,-1.53 -5.93,-0.55 -6.59,2.02 -0.73,2.83 2.14,5.34 5.54,4.05 0.74,-0.29 1.45,-0.74 1.94,-1.37 0.1,-0.13 0.14,-0.26 0.15,-0.42zm8.88 -4.93c-3.1,1.24 -3.09,5.58 0.09,6.77 2.49,0.93 6,-0.15 6.06,-3.32 0.06,-3.38 -3.62,-4.47 -6.15,-3.45zm-4.96 3.58c-0.26,-8.38 13.93,-8.45 13.77,-0.09 -0.15,7.93 -13.51,8 -13.77,0.09zm-29.6 -3.59l0.89 -0.01c0.24,0 0.45,-0.03 0.64,-0.04 0.75,-0.07 1.29,-0.8 1.31,-1.53 0.04,-1.21 -0.66,-1.22 -1.39,-1.16 -0.49,0.04 -0.97,0.05 -1.46,0.06 0,-0.46 -0.01,-0.48 -0.01,-1.19 -0.06,-6.13 -3.82,-3.64 -3.05,-2.13 0.5,0.97 0.54,2.16 0.53,3.31l-0.03 7.57c-0.01,1.77 0.33,4.45 1.53,5.89 1.01,1.21 2.98,-0.09 2.27,-1.26 -1.09,-1.83 -1.23,-2.88 -1.23,-4.88 0,-2.1 0,-3.79 0,-4.63zm-8.51 6.66c0.13,-0.05 0.25,-0.1 0.36,-0.12 1.17,-0.21 2.25,2.29 -0.43,2.85 -2.3,0.47 -4.41,0.02 -5.9,-1.11 -2.43,-1.85 -3.3,-5.34 -1.25,-8.28 1.53,-2.2 4.38,-2.98 6.73,-2.68 3.16,0.4 5.13,2.41 5.15,4.24l0.02 3.03c0.01,1.14 0.09,1.84 0.71,3.18 0.84,1.83 -3.2,3.21 -3.25,-1.64l-0.04 -2.72c-0.01,-1.05 0.11,-1.9 -1.05,-2.83 -2.13,-1.69 -5.94,-0.63 -6.59,2.08 -0.7,2.89 2.14,5.32 5.54,4zm20.65 -1.34c-1.57,2.38 -5.28,2.44 -6.64,0.11 -0.01,-0.01 -0.01,-0.02 -0.01,-0.03 0,-0.01 0.01,-0.01 0.02,-0.02 2.21,-1.13 4.44,-1.24 6.66,-1.95 1.12,-0.39 2.63,-0.61 1.9,-2.8 -0.92,-2.75 -3.97,-3.84 -6.99,-3.18 -2.55,0.56 -4.49,2.7 -4.6,5.46 -0.01,0.35 0,0.64 0.05,1.01 0,0 0,0 0,0l0.01 0.07c0,0.01 0,0.02 -0.02,0.03 -3.03,1.49 -1.19,4.32 0.08,3 0.19,-0.2 0.36,-0.36 0.58,-0.55 0.01,-0.01 0.02,-0.01 0.03,-0.01 0.01,0.01 0.02,0.01 0.02,0.02 1.65,3.51 7.03,3.97 10.03,1.33 0.2,-0.17 0.36,-0.34 0.48,-0.5 1.43,-1.8 -0.64,-3.45 -1.6,-1.99zm-7.22 -2.16c1.98,-1 3.8,-1.23 5.94,-1.84 1.46,-0.42 -0.7,-2.37 -3.24,-1.61 -1.52,0.44 -2.77,1.6 -2.75,3.42 0,0.01 0.01,0.02 0.02,0.03 0.01,0.01 0.02,0.01 0.03,0zm-32.39 -5.62c-2.43,0.32 -3.17,1.69 -2.98,0.88 0.17,-0.71 1.82,-3.23 2.39,-3.25 0.08,0 0.32,0.18 0.54,0.39 0.38,0.35 0.92,0.93 1.39,1.75 1.83,-0.27 3.77,0.03 5.31,0.91 0.08,0.05 0.11,0.02 0.02,-0.04 -0.98,-0.79 -1.57,-0.85 -1.62,-0.94 -0.1,-0.21 1.52,-0.83 1.77,-0.81 0.36,0.02 0.78,1.69 0.69,2.39 1.85,1.53 2.51,4.13 1.83,6.39 -1.1,3.67 -5.33,5.06 -8.79,4.27 -1.65,1.04 -0.91,2.84 1.07,2.46 2.9,-0.55 7.28,-3.55 10.2,-1.44 2.34,1.68 1.23,5.14 -1.28,6.12 -2.4,0.94 -3.69,-1.65 -1.64,-2.37 1.4,-0.5 1.45,-2.31 -0.9,-1.83 -1.94,0.41 -4.89,2.04 -7.33,2.05 -3.47,0.03 -4.94,-3.65 -2.33,-5.81 -2.45,-1.3 -3.47,-4.45 -2.66,-7.03 0.62,-1.94 2.2,-3.35 4.34,-4.02 0.1,-0.03 0.07,-0.08 -0.02,-0.07zm-1.81 5.91c-0.09,5.21 8.81,5.05 8.63,-0.11 -0.18,-5.08 -8.54,-4.74 -8.63,0.11z"/>
 </g>
</svg>
