<?xml version="1.0" encoding="UTF-8"?>
<!DOCTYPE svg PUBLIC "-//W3C//DTD SVG 1.1//EN" "http://www.w3.org/Graphics/SVG/1.1/DTD/svg11.dtd">
<!-- Creator: CorelDRAW -->
<svg xmlns="http://www.w3.org/2000/svg" xml:space="preserve" width="300px" height="336px" version="1.1" style="shape-rendering:geometricPrecision; text-rendering:geometricPrecision; image-rendering:optimizeQuality; fill-rule:evenodd; clip-rule:evenodd"
viewBox="0 0 15.7 17.61"
 xmlns:xlink="http://www.w3.org/1999/xlink"
 xmlns:xodm="http://www.corel.com/coreldraw/odm/2003">
 <defs>
  <style type="text/css">
   <![CDATA[
    .str0 {stroke:#7865DA;stroke-width:0.78;stroke-miterlimit:22.9256}
    .fil1 {fill:none}
    .fil0 {fill:#7865DA}
    .fil2 {fill:#EBFC66}
   ]]>
  </style>
 </defs>
 <g id="Camada_x0020_1">
  <metadata id="CorelCorpID_0Corel-Layer"/>
  <ellipse class="fil0" cx="7.48" cy="9.66" rx="7.48" ry="7.45"/>
  <g>
   <path class="fil1 str0" d="M5.13 2.23c-1.89,0.25 -2.46,1.32 -2.31,0.68 0.13,-0.55 1.41,-2.51 1.85,-2.52 0.06,0 0.25,0.14 0.42,0.3 0.3,0.27 0.71,0.72 1.08,1.36 1.43,-0.21 2.93,0.02 4.13,0.71 0.06,0.04 0.08,0.02 0.01,-0.04 -0.76,-0.6 -1.21,-0.65 -1.25,-0.72 -0.09,-0.16 1.17,-0.64 1.37,-0.63 0.28,0.01 0.6,1.31 0.54,1.85 1.43,1.19 1.94,3.22 1.42,4.97 -0.86,2.85 -4.14,3.93 -6.83,3.32 -1.29,0.81 -0.71,2.21 0.83,1.91 2.25,-0.43 5.65,-2.76 7.93,-1.12 1.81,1.31 0.95,3.99 -1,4.76 -1.86,0.73 -2.86,-1.28 -1.28,-1.84 1.1,-0.39 1.13,-1.8 -0.69,-1.42 -1.51,0.31 -3.8,1.58 -5.7,1.59 -2.7,0.02 -3.84,-2.84 -1.81,-4.52 -1.9,-1.01 -2.7,-3.46 -2.06,-5.46 0.47,-1.51 1.7,-2.61 3.36,-3.12 0.08,-0.03 0.06,-0.07 -0.01,-0.06zm-1.4 4.6c-0.08,4.04 6.84,3.92 6.7,-0.09 -0.14,-3.95 -6.64,-3.68 -6.7,0.09z"/>
   <path id="_1" class="fil2" d="M5.13 2.23c-1.89,0.25 -2.46,1.32 -2.31,0.68 0.13,-0.55 1.41,-2.51 1.85,-2.52 0.06,0 0.25,0.14 0.42,0.3 0.3,0.27 0.71,0.72 1.08,1.36 1.43,-0.21 2.93,0.02 4.13,0.71 0.06,0.04 0.08,0.02 0.01,-0.04 -0.76,-0.6 -1.21,-0.65 -1.25,-0.72 -0.09,-0.16 1.17,-0.64 1.37,-0.63 0.28,0.01 0.6,1.31 0.54,1.85 1.43,1.19 1.94,3.22 1.42,4.97 -0.86,2.85 -4.14,3.93 -6.83,3.32 -1.29,0.81 -0.71,2.21 0.83,1.91 2.25,-0.43 5.65,-2.76 7.93,-1.12 1.81,1.31 0.95,3.99 -1,4.76 -1.86,0.73 -2.86,-1.28 -1.28,-1.84 1.1,-0.39 1.13,-1.8 -0.69,-1.42 -1.51,0.31 -3.8,1.58 -5.7,1.59 -2.7,0.02 -3.84,-2.84 -1.81,-4.52 -1.9,-1.01 -2.7,-3.46 -2.06,-5.46 0.47,-1.51 1.7,-2.61 3.36,-3.12 0.08,-0.03 0.06,-0.07 -0.01,-0.06zm-1.4 4.6c-0.08,4.04 6.84,3.92 6.7,-0.09 -0.14,-3.95 -6.64,-3.68 -6.7,0.09z"/>
  </g>
 </g>
</svg>
