<?xml version="1.0" encoding="UTF-8"?>
<!DOCTYPE svg PUBLIC "-//W3C//DTD SVG 1.1//EN" "http://www.w3.org/Graphics/SVG/1.1/DTD/svg11.dtd">
<!-- Creator: CorelDRAW -->
<svg xmlns="http://www.w3.org/2000/svg" xml:space="preserve" width="391px" height="459px" version="1.1" style="shape-rendering:geometricPrecision; text-rendering:geometricPrecision; image-rendering:optimizeQuality; fill-rule:evenodd; clip-rule:evenodd"
viewBox="0 0 87.94 103.22"
 xmlns:xlink="http://www.w3.org/1999/xlink"
 xmlns:xodm="http://www.corel.com/coreldraw/odm/2003">
 <defs>
  <style type="text/css">
   <![CDATA[
    .fil0 {fill:#EBFC66}
   ]]>
  </style>
 </defs>
 <g id="Camada_x0020_1">
  <metadata id="CorelCorpID_0Corel-Layer"/>
  <path class="fil0" d="M22.06 11.37c-4.35,0.57 -8.94,2.18 -12.96,4.82 -1.67,1.09 -1.63,0.71 -1.32,-0.59 0.48,-2.03 3.33,-7 6.28,-10.84 1.87,-2.43 4.18,-4.73 5.17,-4.76 0.41,-0.01 1.54,0.87 2.62,1.86 1.83,1.66 4.4,4.46 6.69,8.42 8.8,-1.29 18.11,0.11 25.49,4.37 0.39,0.23 0.53,0.12 0.1,-0.22 -4.71,-3.75 -7.53,-4.06 -7.76,-4.5 -0.5,-0.96 5.96,-3.38 7.97,-3.83 0.23,-0.05 0.4,-0.07 0.5,-0.06 1.77,0.1 3.75,8.13 3.34,11.48 8.88,7.34 12.04,19.88 8.78,30.72 -4.47,14.91 -18.3,21.01 -32.55,21.52 -1.65,0.05 -3.27,0.04 -4.86,-0.07 -6.13,3.75 -3.07,11.1 5.22,8.79 7.22,-2 16.58,-7.41 25,-9.62 9.84,-2.59 19.15,-0.11 24.24,6.01 3.74,4.49 5.42,11.19 2.28,18.01 -3.38,7.32 -11.73,12.48 -20.72,9.47 -6.6,-2.22 -7.84,-8.03 -6.39,-11.81 0.74,-1.92 2.26,-3.15 3.99,-3.21 3.27,-0.12 3.94,3.51 7.7,3.26 4.21,-0.29 5.85,-5.87 1.97,-8.77 -3.64,-2.72 -10.07,-1.43 -15.43,0.43 -10.65,3.72 -18.51,10.38 -29.64,9.13 -14.22,-1.59 -18.9,-15.95 -12.28,-25.55 -1.16,-0.61 -2.29,-1.31 -3.41,-2.09 -10.09,-7.08 -14.53,-20.69 -10.74,-32.71 2.94,-9.31 10.55,-16.1 20.82,-19.3 0.5,-0.15 0.34,-0.42 -0.1,-0.36zm-8.67 28.42c-0.44,25.03 42.33,24.27 41.45,-0.54 -0.87,-24.43 -41.04,-22.76 -41.45,0.54z"/>
 </g>
</svg>
