<?xml version="1.0" encoding="UTF-8"?>
<!DOCTYPE svg PUBLIC "-//W3C//DTD SVG 1.1//EN" "http://www.w3.org/Graphics/SVG/1.1/DTD/svg11.dtd">
<!-- Creator: CorelDRAW -->
<svg xmlns="http://www.w3.org/2000/svg" xml:space="preserve" width="470px" height="497px" version="1.1" style="shape-rendering:geometricPrecision; text-rendering:geometricPrecision; image-rendering:optimizeQuality; fill-rule:evenodd; clip-rule:evenodd"
viewBox="0 0 118.19 124.98"
 xmlns:xlink="http://www.w3.org/1999/xlink"
 xmlns:xodm="http://www.corel.com/coreldraw/odm/2003">
 <defs>
  <style type="text/css">
   <![CDATA[
    .str0 {stroke:#6158CA;stroke-width:7.05;stroke-miterlimit:22.9256}
    .fil1 {fill:none}
    .fil0 {fill:#6158CA}
    .fil2 {fill:#EBFC66}
   ]]>
  </style>
 </defs>
 <g id="Camada_x0020_1">
  <metadata id="CorelCorpID_0Corel-Layer"/>
  <ellipse class="fil0" cx="57.35" cy="67.91" rx="57.35" ry="57.08"/>
  <g>
   <path class="fil1 str0" d="M40.97 16.24c-4.86,0.64 -10.01,2.44 -14.5,5.39 -1.87,1.23 -1.83,0.8 -1.48,-0.65 0.54,-2.27 3.73,-7.83 7.03,-12.13 2.1,-2.72 4.68,-5.3 5.79,-5.33 0.45,-0.01 1.71,0.97 2.93,2.08 2.04,1.86 4.91,5 7.48,9.43 9.84,-1.46 20.26,0.12 28.51,4.88 0.44,0.26 0.59,0.13 0.12,-0.24 -5.28,-4.2 -8.42,-4.55 -8.68,-5.04 -0.56,-1.08 6.66,-3.79 8.91,-4.28 0.26,-0.05 0.45,-0.08 0.56,-0.08 1.98,0.13 4.2,9.11 3.74,12.86 9.93,8.21 13.47,22.23 9.82,34.36 -5.01,16.68 -20.47,23.5 -36.42,24.07 -1.84,0.06 -3.65,0.04 -5.43,-0.08 -6.86,4.21 -3.44,12.42 5.84,9.84 8.08,-2.24 18.54,-8.28 27.97,-10.76 11,-2.9 21.42,-0.12 27.12,6.72 4.18,5.02 6.06,12.52 2.54,20.15 -3.77,8.19 -13.11,13.97 -23.17,10.59 -7.39,-2.48 -8.78,-8.97 -7.15,-13.2 0.83,-2.15 2.52,-3.53 4.46,-3.6 3.65,-0.14 4.41,3.93 8.61,3.64 4.71,-0.32 6.55,-6.56 2.21,-9.81 -4.07,-3.04 -11.27,-1.59 -17.26,0.49 -11.92,4.15 -20.71,11.61 -33.16,10.21 -15.91,-1.77 -21.14,-17.85 -13.74,-28.58 -1.29,-0.69 -2.57,-1.47 -3.82,-2.34 -11.28,-7.92 -16.25,-23.14 -12.01,-36.59 3.28,-10.41 11.8,-18.02 23.29,-21.59 0.56,-0.17 0.38,-0.47 -0.11,-0.41zm-9.7 31.8c-0.49,28 47.36,27.14 46.37,-0.6 -0.97,-27.33 -45.91,-25.47 -46.37,0.6z"/>
   <path id="_1" class="fil2" d="M40.97 16.24c-4.86,0.64 -10.01,2.44 -14.5,5.39 -1.87,1.23 -1.83,0.8 -1.48,-0.65 0.54,-2.27 3.73,-7.83 7.03,-12.13 2.1,-2.72 4.68,-5.3 5.79,-5.33 0.45,-0.01 1.71,0.97 2.93,2.08 2.04,1.86 4.91,5 7.48,9.43 9.84,-1.46 20.26,0.12 28.51,4.88 0.44,0.26 0.59,0.13 0.12,-0.24 -5.28,-4.2 -8.42,-4.55 -8.68,-5.04 -0.56,-1.08 6.66,-3.79 8.91,-4.28 0.26,-0.05 0.45,-0.08 0.56,-0.08 1.98,0.13 4.2,9.11 3.74,12.86 9.93,8.21 13.47,22.23 9.82,34.36 -5.01,16.68 -20.47,23.5 -36.42,24.07 -1.84,0.06 -3.65,0.04 -5.43,-0.08 -6.86,4.21 -3.44,12.42 5.84,9.84 8.08,-2.24 18.54,-8.28 27.97,-10.76 11,-2.9 21.42,-0.12 27.12,6.72 4.18,5.02 6.06,12.52 2.54,20.15 -3.77,8.19 -13.11,13.97 -23.17,10.59 -7.39,-2.48 -8.78,-8.97 -7.15,-13.2 0.83,-2.15 2.52,-3.53 4.46,-3.6 3.65,-0.14 4.41,3.93 8.61,3.64 4.71,-0.32 6.55,-6.56 2.21,-9.81 -4.07,-3.04 -11.27,-1.59 -17.26,0.49 -11.92,4.15 -20.71,11.61 -33.16,10.21 -15.91,-1.77 -21.14,-17.85 -13.74,-28.58 -1.29,-0.69 -2.57,-1.47 -3.82,-2.34 -11.28,-7.92 -16.25,-23.14 -12.01,-36.59 3.28,-10.41 11.8,-18.02 23.29,-21.59 0.56,-0.17 0.38,-0.47 -0.11,-0.41zm-9.7 31.8c-0.49,28 47.36,27.14 46.37,-0.6 -0.97,-27.33 -45.91,-25.47 -46.37,0.6z"/>
  </g>
 </g>
</svg>
