<?xml version="1.0" encoding="UTF-8"?>
<!DOCTYPE svg PUBLIC "-//W3C//DTD SVG 1.1//EN" "http://www.w3.org/Graphics/SVG/1.1/DTD/svg11.dtd">
<!-- Creator: CorelDRAW -->
<svg xmlns="http://www.w3.org/2000/svg" xml:space="preserve" width="1593px" height="1949px" version="1.1" style="shape-rendering:geometricPrecision; text-rendering:geometricPrecision; image-rendering:optimizeQuality; fill-rule:evenodd; clip-rule:evenodd"
viewBox="0 0 332.89 407.39"
 xmlns:xlink="http://www.w3.org/1999/xlink"
 xmlns:xodm="http://www.corel.com/coreldraw/odm/2003">
 <defs>
  <style type="text/css">
   <![CDATA[
    .fil0 {fill:#EBFC66}
   ]]>
  </style>
 </defs>
 <g id="Camada_x0020_1">
  <metadata id="CorelCorpID_0Corel-Layer"/>
  <path class="fil0" d="M86.28 44.5c-45.57,6 -59.58,31.9 -55.93,16.58 3.18,-13.31 34.14,-60.81 44.86,-61.08 1.58,-0.04 6,3.39 10.25,7.27 7.14,6.52 17.2,17.48 26.17,32.99 34.45,-5.09 70.89,0.43 99.79,17.09 1.53,0.89 2.06,0.46 0.41,-0.85 -18.47,-14.7 -29.47,-15.91 -30.38,-17.65 -2.04,-3.89 28.46,-15.5 33.13,-15.23 6.93,0.43 14.69,31.85 13.09,44.98 34.74,28.73 47.15,77.8 34.39,120.26 -20.73,68.95 -100.23,95.16 -165.35,80.39 -31.11,19.57 -17.12,53.39 20.15,46.25 54.46,-10.44 136.89,-66.89 191.9,-27.21 43.93,31.68 23.11,96.72 -24.14,115.28 -45.05,17.7 -69.34,-31.02 -30.87,-44.65 26.43,-9.37 27.31,-43.45 -16.88,-34.33 -36.59,7.54 -92.05,38.21 -137.99,38.56 -65.27,0.49 -92.91,-68.84 -43.85,-109.4 -45.92,-24.49 -65.15,-83.76 -49.86,-132.27 11.48,-36.44 41.27,-63.05 81.48,-75.54 1.97,-0.61 1.34,-1.67 -0.37,-1.44zm-33.93 111.27c-1.73,97.98 165.69,94.98 162.25,-2.11 -3.4,-95.63 -160.65,-89.12 -162.25,2.11z"/>
 </g>
</svg>
