<?xml version="1.0" encoding="UTF-8"?>
<!DOCTYPE svg PUBLIC "-//W3C//DTD SVG 1.1//EN" "http://www.w3.org/Graphics/SVG/1.1/DTD/svg11.dtd">
<!-- Creator: CorelDRAW -->
<svg xmlns="http://www.w3.org/2000/svg" xml:space="preserve" width="1200px" height="1200px" version="1.1" style="shape-rendering:geometricPrecision; text-rendering:geometricPrecision; image-rendering:optimizeQuality; fill-rule:evenodd; clip-rule:evenodd"
viewBox="0 0 179.34 179.34"
 xmlns:xlink="http://www.w3.org/1999/xlink"
 xmlns:xodm="http://www.corel.com/coreldraw/odm/2003">
 <defs>
  <style type="text/css">
   <![CDATA[
    .fil0 {fill:none}
    .fil4 {fill:#F2FE67}
    .fil3 {fill:url(#id2)}
    .fil2 {fill:url(#id3)}
    .fil1 {fill:url(#id4);fill-opacity:0.450980}
   ]]>
  </style>
   <clipPath id="id0">
    <path d="M89.67 14.18c41.89,0 75.85,33.79 75.85,75.49 0,41.69 -33.96,75.49 -75.85,75.49 -41.89,0 -75.86,-33.8 -75.86,-75.49 0,-41.7 33.97,-75.49 75.86,-75.49z"/>
   </clipPath>
   <clipPath id="id1">
    <path d="M89.67 14.18c41.89,0 75.85,33.79 75.85,75.49 0,41.69 -33.96,75.49 -75.85,75.49 -41.89,0 -75.86,-33.8 -75.86,-75.49 0,-41.7 33.97,-75.49 75.86,-75.49z"/>
   </clipPath>
  <radialGradient id="id2" gradientUnits="userSpaceOnUse" gradientTransform="matrix(1.29851 1.93795 -1.59252 1.58172 35 -137)" cx="60.86" cy="33.39" r="78.84" fx="60.86" fy="33.39">
   <stop offset="0" style="stop-opacity:1; stop-color:#9166FD"/>
   <stop offset="0.4" style="stop-opacity:1; stop-color:#8B4AFF"/>
   <stop offset="1" style="stop-opacity:1; stop-color:#753BEB"/>
  </radialGradient>
  <radialGradient id="id3" gradientUnits="userSpaceOnUse" gradientTransform="matrix(1.44428 2.09659 -2.08769 1.45181 50 -133)" cx="55.78" cy="35.95" r="58.95" fx="55.78" fy="35.95">
   <stop offset="0" style="stop-opacity:1; stop-color:#A07AFF"/>
   <stop offset="0.45098" style="stop-opacity:1; stop-color:#8B4AFF"/>
   <stop offset="1" style="stop-opacity:1; stop-color:#753BEB"/>
  </radialGradient>
  <radialGradient id="id4" gradientUnits="userSpaceOnUse" gradientTransform="matrix(2.75379 2.24015 -2.20591 2.68596 67 62)" cx="-31.7" cy="5.12" r="75.85" fx="-31.7" fy="5.12">
   <stop offset="0" style="stop-opacity:1; stop-color:#EFEAF6"/>
   <stop offset="0.541176" style="stop-opacity:1; stop-color:#CABFFF"/>
   <stop offset="1" style="stop-opacity:1; stop-color:#B4A4FF"/>
  </radialGradient>
 </defs>
 <g id="Camada_x0020_1">
  <metadata id="CorelCorpID_0Corel-Layer"/>
  <rect class="fil0" width="179.34" height="179.34"/>
  <g style="clip-path:url(#id0)">
   <polygon class="fil1" points="13.81,14.18 165.52,14.18 165.52,165.16 13.81,165.16 "/>
  </g>
  <g style="clip-path:url(#id1)">
   <g id="_2143895269360">
    <g>
     <image x="35.42" y="6.11" width="131.7" height="156.72" xlink:href="App_gatedo_logo_Images\App_gatedo_logo_ImgID1.png"/>
    </g>
   </g>
  </g>
  <path class="fil0" d="M89.67 14.18c41.89,0 75.85,33.79 75.85,75.49 0,41.69 -33.96,75.49 -75.85,75.49 -41.89,0 -75.86,-33.8 -75.86,-75.49 0,-41.7 33.97,-75.49 75.86,-75.49z"/>
  <ellipse class="fil2" cx="89.67" cy="89.67" rx="62.76" ry="62.46"/>
  <path class="fil3" d="M61.33 30.43c3.04,-1.4 7.06,-2.78 12.21,-3.46 1.03,-0.14 2,0.13 2.65,0.59 0.65,0.45 1.1,1.09 1.31,1.86l-0.01 0.01c0.23,0.84 0.12,1.7 -0.35,2.49l0.01 0c-0.41,0.69 -1.13,1.3 -2.16,1.63 -6.28,1.95 -11.72,5 -16.02,8.97 -4.15,3.85 -7.23,8.58 -8.94,14.02 -2.38,7.57 -2.02,15.99 0.79,23.42 2.65,7.05 7.49,13.18 14.23,16.77l4.13 2.21 -3.6 2.97c-3.61,2.98 -5.76,6.46 -6.66,9.97 -0.82,3.21 -0.61,6.47 0.5,9.42 1.13,2.97 3.15,5.63 5.94,7.63 3.27,2.34 7.59,3.77 12.75,3.73 8.95,-0.07 19.43,-3.96 28.87,-7.47 5.95,-2.21 11.5,-4.28 16.3,-5.26 6.02,-1.25 10.16,-0.31 12.6,1.62 1.36,1.08 2.21,2.43 2.61,3.92 0.38,1.44 0.32,2.97 -0.15,4.45 -0.95,3.02 -3.69,5.97 -7.8,7.42 -2.75,0.98 -4.06,2.56 -4.23,4.14 -0.07,0.68 0.05,1.38 0.34,2.06 0.32,0.73 0.83,1.42 1.51,2 2.11,1.81 5.78,2.57 10.44,0.74 4.07,-1.6 7.47,-4.39 9.9,-7.76 1.96,-2.72 3.29,-5.81 3.84,-8.95 0.54,-3.07 0.32,-6.18 -0.79,-9.01 -1.04,-2.64 -2.88,-5.08 -5.63,-7.07 -11.54,-8.32 -28.19,-1.98 -42.97,3.66 -6.52,2.48 -12.71,4.84 -18.27,5.91 -4.93,0.94 -8.97,0.04 -11.75,-1.88 -1.7,-1.18 -2.93,-2.73 -3.65,-4.5 -0.71,-1.78 -0.89,-3.74 -0.47,-5.74 0.68,-3.18 2.9,-6.42 6.92,-8.95l1.1 -0.7 1.26 0.29c10.77,2.44 22.79,1.31 32.66,-3.5 8.6,-4.18 15.54,-11.16 18.5,-21.01 1.98,-6.58 1.97,-13.68 0.1,-20.23 -1.8,-6.31 -5.34,-12.08 -10.5,-16.35l-1.32 -1.1 0.2 -1.7 0.04 -0.34 0.01 -0.34c-0.53,0.41 -1.18,0.62 -1.92,0.62l-0.01 -0.01c-0.57,0 -1.28,-0.18 -1.95,-0.57 -4.38,-2.52 -9.35,-4.22 -14.56,-5.12 -5.41,-0.92 -11.05,-0.97 -16.53,-0.16l-2.1 0.31 -1.07 -1.84c-1.22,-2.11 -2.5,-3.95 -3.75,-5.52 -1.59,-2 -3.1,-3.56 -4.33,-4.68 -0.57,-0.52 -1.14,-1 -1.61,-1.36 -0.82,0.7 -2.56,2.91 -4.48,5.53 -1.48,2.02 -2.94,4.21 -4.14,6.22zm-8.23 9.08c-1.13,-0.85 -1.31,-2.32 -0.75,-4.66l-0.02 0c0.67,-2.79 4.33,-9.24 8.08,-14.35 3.34,-4.54 7.09,-8.25 9.79,-8.32 0.97,-0.02 2.04,0.44 3.12,1.2l0.01 0c0.75,0.54 1.62,1.27 2.45,2.02 1.44,1.31 3.19,3.11 5.02,5.41 1.05,1.33 2.12,2.82 3.17,4.48 5.47,-0.61 11.05,-0.46 16.42,0.46 0.84,0.14 1.67,0.31 2.5,0.49 0.52,-0.85 1.39,-1.6 2.5,-2.25l0.01 0.01c1.07,-0.62 2.47,-1.28 3.89,-1.87 2.91,-1.2 6.25,-2.18 7.4,-2.11 0.09,0.01 0.14,0.02 0.23,0.02 2.55,0.31 4.59,3.73 5.76,7.84 0.81,2.88 1.36,6.26 1.37,8.81 5.53,4.99 9.34,11.44 11.34,18.43 2.19,7.68 2.2,16.01 -0.13,23.74 -3.51,11.69 -11.68,19.96 -21.78,24.87 -10.73,5.21 -23.67,6.6 -35.41,4.25 -1.82,1.37 -2.82,2.87 -3.12,4.26 -0.16,0.76 -0.1,1.48 0.15,2.11 0.26,0.64 0.73,1.21 1.39,1.67 1.49,1.04 3.88,1.48 7.01,0.88 4.99,-0.96 10.94,-3.23 17.22,-5.62 16.26,-6.2 34.57,-13.18 48.86,-2.87 3.8,2.74 6.35,6.15 7.81,9.87 1.55,3.94 1.86,8.19 1.14,12.34 -0.71,4.07 -2.43,8.06 -4.95,11.55 -3.11,4.32 -7.47,7.9 -12.7,9.95 -7.13,2.8 -13.12,1.33 -16.79,-1.82 -1.43,-1.22 -2.52,-2.69 -3.21,-4.28 -0.71,-1.65 -0.99,-3.43 -0.8,-5.2 0.41,-3.84 3.02,-7.49 8.38,-9.39 2.12,-0.76 3.48,-2.09 3.89,-3.4 0.12,-0.37 0.15,-0.7 0.08,-0.96 -0.06,-0.22 -0.2,-0.43 -0.43,-0.61 -1.12,-0.88 -3.49,-1.22 -7.47,-0.4 -4.33,0.89 -9.66,2.88 -15.37,5 -9.93,3.69 -20.95,7.78 -31.02,7.86 -6.56,0.05 -12.13,-1.83 -16.41,-4.89 -3.83,-2.74 -6.62,-6.41 -8.17,-10.53 -1.56,-4.13 -1.87,-8.69 -0.73,-13.16 0.92,-3.6 2.77,-7.13 5.65,-10.31 -6.28,-4.42 -10.85,-10.76 -13.53,-17.86 -3.28,-8.71 -3.71,-18.6 -0.91,-27.49 1.83,-5.79 4.93,-10.9 9.06,-15.17zm17.24 -21.07l-0.04 0.01c0.16,-0.01 0.25,-0.01 0.04,-0.01zm41.6 9.37c1.45,0.8 3.17,1.89 5.12,3.4 -0.13,-0.55 -0.27,-1.1 -0.42,-1.64 -0.51,-1.78 -0.14,-3.13 -0.41,-3.29 -0.51,0.08 -2.34,0.74 -4.29,1.53zm-46.13 39.23c-0.17,9.82 5.61,16.1 13.15,18.93 3.32,1.25 6.99,1.85 10.67,1.81 3.64,-0.04 7.3,-0.72 10.64,-2.04 7.64,-3.02 13.46,-9.5 13.11,-19.34 -0.33,-9.5 -5.97,-15.49 -13.22,-18.18 -3.23,-1.19 -6.77,-1.76 -10.31,-1.71 -3.55,0.05 -7.11,0.72 -10.37,1.98 -7.58,2.95 -13.5,9.21 -13.67,18.55zm10.96 24.8c-9.87,-3.71 -17.44,-11.97 -17.21,-24.9 0.21,-12.29 7.86,-20.48 17.66,-24.29 3.95,-1.53 8.26,-2.34 12.56,-2.4 4.31,-0.06 8.61,0.63 12.54,2.08 9.49,3.52 16.88,11.38 17.32,23.85 0.46,12.96 -7.11,21.46 -17.06,25.4 -4.02,1.59 -8.46,2.41 -12.9,2.46 -4.43,0.05 -8.86,-0.68 -12.91,-2.2z"/>
  <path class="fil4" d="M73.94 30.07c-15.11,2 -19.76,10.59 -18.55,5.51 1.05,-4.42 11.33,-20.18 14.88,-20.27 0.53,-0.01 1.99,1.13 3.4,2.41 2.37,2.16 5.71,5.8 8.68,10.95 11.43,-1.69 23.52,0.14 33.11,5.67 0.51,0.29 0.68,0.15 0.14,-0.29 -6.13,-4.87 -9.78,-5.27 -10.08,-5.85 -0.68,-1.29 9.44,-5.14 10.99,-5.05 2.3,0.14 4.87,10.56 4.34,14.92 11.53,9.53 15.64,25.81 11.41,39.9 -6.88,22.87 -33.25,31.57 -54.86,26.67 -10.32,6.49 -5.67,17.71 6.69,15.34 18.07,-3.46 45.41,-22.19 63.66,-9.03 14.57,10.51 7.67,32.09 -8.01,38.25 -14.94,5.87 -23,-10.29 -10.24,-14.82 8.77,-3.1 9.06,-14.41 -5.6,-11.39 -12.14,2.51 -30.53,12.68 -45.78,12.8 -21.65,0.16 -30.82,-22.84 -14.54,-36.3 -15.24,-8.12 -21.62,-27.78 -16.55,-43.88 3.81,-12.09 13.7,-20.92 27.04,-25.06 0.65,-0.2 0.44,-0.55 -0.13,-0.48zm-11.25 36.92c-0.58,32.51 54.97,31.51 53.82,-0.7 -1.12,-31.73 -53.29,-29.57 -53.82,0.7z"/>
 </g>
</svg>
