<?xml version="1.0" encoding="UTF-8"?>
<!DOCTYPE svg PUBLIC "-//W3C//DTD SVG 1.1//EN" "http://www.w3.org/Graphics/SVG/1.1/DTD/svg11.dtd">
<!-- Creator: CorelDRAW -->
<svg xmlns="http://www.w3.org/2000/svg" xml:space="preserve" width="533px" height="533px" version="1.1" style="shape-rendering:geometricPrecision; text-rendering:geometricPrecision; image-rendering:optimizeQuality; fill-rule:evenodd; clip-rule:evenodd"
viewBox="0 0 68.22 68.22"
 xmlns:xlink="http://www.w3.org/1999/xlink"
 xmlns:xodm="http://www.corel.com/coreldraw/odm/2003">
 <defs>
  <style type="text/css">
   <![CDATA[
    .fil4 {fill:none}
    .fil3 {fill:#F2FE67}
    .fil2 {fill:url(#id0)}
    .fil1 {fill:url(#id1)}
    .fil0 {fill:url(#id2);fill-opacity:0.450980}
   ]]>
  </style>
  <radialGradient id="id0" gradientUnits="userSpaceOnUse" gradientTransform="matrix(1.29851 1.93795 -1.59252 1.58172 9 -48)" cx="21.61" cy="9.68" r="34.22" fx="21.61" fy="9.68">
   <stop offset="0" style="stop-opacity:1; stop-color:#9166FD"/>
   <stop offset="0.4" style="stop-opacity:1; stop-color:#8B4AFF"/>
   <stop offset="1" style="stop-opacity:1; stop-color:#753BEB"/>
  </radialGradient>
  <radialGradient id="id1" gradientUnits="userSpaceOnUse" gradientTransform="matrix(1.57347 1.93795 -1.92974 1.58173 20 -39)" xlink:href="#id0" cx="15.59" cy="15.13" r="25.59" fx="15.59" fy="15.13">
  </radialGradient>
  <radialGradient id="id2" gradientUnits="userSpaceOnUse" gradientTransform="matrix(2.75379 2.24015 -2.20591 2.68596 27 46)" cx="-18.57" cy="-2.59" r="32.93" fx="-18.57" fy="-2.59">
   <stop offset="0" style="stop-opacity:1; stop-color:#EFEAF6"/>
   <stop offset="0.541176" style="stop-opacity:1; stop-color:#CABFFF"/>
   <stop offset="1" style="stop-opacity:1; stop-color:#B4A4FF"/>
  </radialGradient>
 </defs>
 <g id="Camada_x0020_1">
  <metadata id="CorelCorpID_0Corel-Layer"/>
  <g id="_2135395127488">
   <path class="fil0" d="M34.11 1.34c18.19,0 32.93,14.67 32.93,32.77 0,18.1 -14.74,32.77 -32.93,32.77 -18.18,0 -32.93,-14.67 -32.93,-32.77 0,-18.1 14.75,-32.77 32.93,-32.77z"/>
   <ellipse class="fil1" cx="34.11" cy="34.11" rx="27.24" ry="27.11"/>
   <path class="fil2" d="M21.81 8.39c1.32,-0.6 3.06,-1.2 5.3,-1.5 0.45,-0.06 0.87,0.06 1.15,0.26 0.28,0.2 0.48,0.47 0.57,0.81l0 0c0.09,0.37 0.05,0.74 -0.16,1.08l0.01 0c-0.18,0.3 -0.49,0.57 -0.94,0.71 -2.73,0.84 -5.09,2.17 -6.95,3.9 -1.8,1.67 -3.14,3.72 -3.89,6.08 -1.03,3.28 -0.87,6.94 0.35,10.17 1.15,3.06 3.25,5.72 6.17,7.28l1.8 0.95 -1.57 1.3c-1.56,1.29 -2.5,2.8 -2.89,4.32 -0.35,1.4 -0.26,2.81 0.22,4.09 0.49,1.29 1.37,2.45 2.58,3.31 1.42,1.02 3.3,1.64 5.53,1.62 3.89,-0.03 8.44,-1.72 12.54,-3.24 2.58,-0.96 4.99,-1.86 7.07,-2.28 2.61,-0.54 4.41,-0.14 5.47,0.7 0.59,0.47 0.96,1.06 1.13,1.7 0.17,0.63 0.14,1.29 -0.06,1.93 -0.41,1.32 -1.6,2.59 -3.38,3.23 -1.2,0.42 -1.77,1.11 -1.84,1.79 -0.03,0.3 0.02,0.6 0.15,0.9 0.13,0.31 0.36,0.61 0.65,0.87 0.92,0.78 2.51,1.11 4.53,0.32 1.77,-0.7 3.24,-1.91 4.3,-3.37 0.85,-1.18 1.43,-2.52 1.67,-3.89 0.23,-1.33 0.14,-2.68 -0.35,-3.91 -0.45,-1.15 -1.24,-2.2 -2.44,-3.07 -5.01,-3.61 -12.24,-0.86 -18.65,1.59 -2.84,1.08 -5.52,2.1 -7.94,2.57 -2.13,0.41 -3.89,0.01 -5.09,-0.82 -0.74,-0.51 -1.28,-1.19 -1.59,-1.95 -0.31,-0.77 -0.39,-1.63 -0.2,-2.49 0.29,-1.38 1.26,-2.79 3,-3.89l0.48 -0.3 0.55 0.12c4.67,1.06 9.89,0.57 14.17,-1.52 3.74,-1.81 6.75,-4.84 8.03,-9.12 0.86,-2.85 0.86,-5.94 0.05,-8.78 -0.78,-2.74 -2.32,-5.24 -4.56,-7.1l-0.58 -0.47 0.09 -0.74 0.02 -0.15 0.01 -0.15c-0.24,0.18 -0.52,0.27 -0.84,0.27l0 0c-0.25,0 -0.56,-0.08 -0.85,-0.25 -1.9,-1.1 -4.06,-1.83 -6.32,-2.22 -2.35,-0.4 -4.8,-0.42 -7.18,-0.07l-0.91 0.13 -0.46 -0.8c-0.53,-0.91 -1.09,-1.71 -1.63,-2.39 -0.69,-0.87 -1.35,-1.55 -1.88,-2.03 -0.25,-0.23 -0.49,-0.44 -0.7,-0.6 -0.35,0.31 -1.11,1.27 -1.94,2.41 -0.65,0.87 -1.28,1.83 -1.8,2.69zm-3.57 3.95c-0.5,-0.37 -0.57,-1.01 -0.33,-2.02l-0.01 0c0.29,-1.22 1.88,-4.02 3.51,-6.23 1.45,-1.98 3.08,-3.59 4.25,-3.62 0.42,-0.01 0.89,0.2 1.35,0.53l0.01 0c0.32,0.23 0.7,0.54 1.06,0.87 0.63,0.57 1.39,1.35 2.18,2.35 0.46,0.58 0.92,1.22 1.38,1.95 2.37,-0.27 4.79,-0.21 7.13,0.19 0.36,0.07 0.72,0.14 1.08,0.22 0.23,-0.37 0.61,-0.7 1.09,-0.98l0 0.01c0.46,-0.27 1.07,-0.56 1.69,-0.82 1.26,-0.52 2.71,-0.94 3.21,-0.91 0.04,0 0.06,0 0.1,0 1.11,0.14 1.99,1.62 2.5,3.41 0.35,1.25 0.59,2.71 0.6,3.82 2.4,2.17 4.05,4.97 4.92,8 0.95,3.34 0.95,6.96 -0.06,10.31 -1.52,5.08 -5.07,8.66 -9.45,10.79 -4.66,2.27 -10.28,2.87 -15.38,1.85 -0.79,0.6 -1.22,1.25 -1.35,1.85 -0.07,0.33 -0.04,0.64 0.07,0.91 0.11,0.28 0.31,0.53 0.6,0.73 0.65,0.45 1.68,0.64 3.04,0.38 2.17,-0.41 4.75,-1.4 7.48,-2.44 7.06,-2.69 15,-5.72 21.21,-1.24 1.65,1.19 2.75,2.67 3.39,4.28 0.67,1.71 0.81,3.56 0.49,5.36 -0.31,1.77 -1.05,3.5 -2.14,5.01 -1.36,1.88 -3.25,3.43 -5.52,4.32 -3.09,1.22 -5.69,0.58 -7.29,-0.79 -0.62,-0.53 -1.09,-1.17 -1.39,-1.86 -0.31,-0.71 -0.43,-1.49 -0.35,-2.25 0.18,-1.67 1.31,-3.26 3.64,-4.08 0.92,-0.33 1.51,-0.91 1.69,-1.48 0.05,-0.15 0.06,-0.3 0.03,-0.41 -0.02,-0.1 -0.08,-0.19 -0.18,-0.27 -0.49,-0.38 -1.52,-0.53 -3.25,-0.17 -1.88,0.39 -4.19,1.25 -6.67,2.17 -4.31,1.6 -9.09,3.38 -13.46,3.41 -2.85,0.02 -5.27,-0.79 -7.13,-2.12 -1.66,-1.19 -2.87,-2.79 -3.54,-4.57 -0.68,-1.8 -0.82,-3.78 -0.32,-5.72 0.4,-1.56 1.2,-3.09 2.45,-4.47 -2.72,-1.92 -4.71,-4.67 -5.87,-7.75 -1.43,-3.79 -1.61,-8.08 -0.4,-11.94 0.8,-2.51 2.14,-4.73 3.94,-6.58zm7.48 -9.15l-0.02 0c0.07,0 0.11,0 0.02,0zm18.06 4.07c0.63,0.35 1.37,0.82 2.22,1.48 -0.05,-0.24 -0.12,-0.48 -0.18,-0.72 -0.22,-0.77 -0.06,-1.35 -0.18,-1.42 -0.22,0.03 -1.01,0.31 -1.86,0.66zm-20.02 17.03c-0.08,4.26 2.43,6.99 5.7,8.22 1.45,0.54 3.04,0.8 4.63,0.78 1.59,-0.02 3.17,-0.31 4.62,-0.89 3.32,-1.31 5.85,-4.12 5.7,-8.39 -0.15,-4.12 -2.6,-6.72 -5.74,-7.89 -1.41,-0.52 -2.94,-0.76 -4.48,-0.74 -1.54,0.02 -3.09,0.31 -4.5,0.86 -3.29,1.27 -5.86,3.99 -5.93,8.05zm4.75 10.76c-4.28,-1.61 -7.57,-5.19 -7.47,-10.8 0.09,-5.34 3.41,-8.9 7.67,-10.55 1.71,-0.66 3.58,-1.01 5.45,-1.04 1.87,-0.03 3.74,0.27 5.44,0.9 4.12,1.53 7.33,4.94 7.52,10.35 0.2,5.63 -3.09,9.32 -7.4,11.03 -1.75,0.69 -3.67,1.05 -5.61,1.07 -1.92,0.02 -3.84,-0.3 -5.6,-0.96z"/>
   <path class="fil3" d="M27.29 8.24c-6.57,0.87 -8.59,4.6 -8.06,2.39 0.46,-1.92 4.92,-8.76 6.46,-8.8 0.23,0 0.87,0.49 1.48,1.05 1.03,0.94 2.47,2.52 3.77,4.75 4.96,-0.73 10.2,0.06 14.37,2.46 0.22,0.13 0.29,0.07 0.06,-0.12 -2.66,-2.12 -4.25,-2.29 -4.38,-2.54 -0.29,-0.56 4.1,-2.23 4.77,-2.19 1,0.06 2.12,4.58 1.89,6.47 5,4.14 6.79,11.21 4.95,17.32 -2.99,9.93 -14.44,13.71 -23.81,11.58 -4.48,2.82 -2.47,7.69 2.9,6.66 7.84,-1.5 19.71,-9.63 27.63,-3.92 6.33,4.56 3.33,13.93 -3.47,16.6 -6.49,2.55 -9.99,-4.47 -4.45,-6.43 3.81,-1.35 3.94,-6.25 -2.43,-4.94 -5.27,1.08 -13.25,5.5 -19.87,5.55 -9.4,0.07 -13.38,-9.91 -6.32,-15.75 -6.61,-3.53 -9.38,-12.07 -7.18,-19.05 1.66,-5.25 5.95,-9.08 11.74,-10.88 0.28,-0.09 0.19,-0.24 -0.05,-0.21zm-4.89 16.03c-0.25,14.11 23.86,13.68 23.36,-0.31 -0.49,-13.77 -23.13,-12.83 -23.36,0.31z"/>
   <rect class="fil4" width="68.22" height="68.22"/>
  </g>
 </g>
</svg>
